HIERARCHY
ROOT Hips
{
	OFFSET	0.00	0.00	0.00
	CHANNELS 6 Xposition Yposition Zposition Zrotation Xrotation Yrotation
	JOINT LeftUpLeg
	{
		OFFSET	 0.126116	-0.014019	-0.065224
		CHANNELS 3 Zrotation Xrotation Yrotation
		JOINT LeftLeg
		{
			OFFSET	 0.000000	 0.000000	 0.569914
			CHANNELS 3 Zrotation Xrotation Yrotation
			JOINT LeftFoot
			{
				OFFSET	 0.000000	 0.000000	 0.544423
				CHANNELS 3 Zrotation Xrotation Yrotation
				JOINT LeftToeBase
				{
					OFFSET	 0.000000	 0.000000	 0.207117
					CHANNELS 3 Zrotation Xrotation Yrotation
					End Site
					{
						OFFSET	 0.000000	 0.000000	 0.207117
					}
				}
			}
		}
	}
	JOINT RightUpLeg
	{
		OFFSET	-0.124023	-0.008373	-0.065224
		CHANNELS 3 Zrotation Xrotation Yrotation
		JOINT RightLeg
		{
			OFFSET	 0.000000	 0.000000	 0.570047
			CHANNELS 3 Zrotation Xrotation Yrotation
			JOINT RightFoot
			{
				OFFSET	 0.000000	 0.000000	 0.544354
				CHANNELS 3 Zrotation Xrotation Yrotation
				JOINT RightToeBase
				{
					OFFSET	 0.000000	 0.000000	 0.207540
					CHANNELS 3 Zrotation Xrotation Yrotation
					End Site
					{
						OFFSET	 0.000000	 0.000000	 0.207540
					}
				}
			}
		}
	}
	JOINT Spine
	{
		OFFSET	 0.000184	-0.007763	 0.117403
		CHANNELS 3 Zrotation Xrotation Yrotation
		JOINT Spine1
		{
			OFFSET	 0.000000	 0.000000	 0.137269
			CHANNELS 3 Zrotation Xrotation Yrotation
			JOINT Spine2
			{
				OFFSET	 0.000000	 0.000000	 0.156879
				CHANNELS 3 Zrotation Xrotation Yrotation
				JOINT LeftShoulder
				{
					OFFSET	 0.080501	-0.002496	 0.160144
					CHANNELS 3 Zrotation Xrotation Yrotation
					JOINT LeftArm
					{
						OFFSET	 0.000000	 0.000000	 0.164363
						CHANNELS 3 Zrotation Xrotation Yrotation
						JOINT LeftForeArm
						{
							OFFSET	 0.000000	 0.000000	 0.364576
							CHANNELS 3 Zrotation Xrotation Yrotation
							JOINT LeftHand
							{
								OFFSET	 0.000000	 0.000000	 0.360812
								CHANNELS 3 Zrotation Xrotation Yrotation
								JOINT LeftHandIndex1
								{
									OFFSET	 0.000000	 0.000000	 0.086006
									CHANNELS 3 Zrotation Xrotation Yrotation
									JOINT LeftHandIndex2
									{
										OFFSET	 0.000000	 0.000000	 0.047236
										CHANNELS 3 Zrotation Xrotation Yrotation
										JOINT LeftHandIndex3
										{
											OFFSET	-0.004284	-0.000551	 0.038166
											CHANNELS 3 Zrotation Xrotation Yrotation
											End Site
											{
												OFFSET	-0.004284	-0.000551	 0.038166
											}
										}
									}
								}
							}
						}
					}
				}
				JOINT Neck
				{
					OFFSET	 0.000000	 0.000000	 0.176489
					CHANNELS 3 Zrotation Xrotation Yrotation
					JOINT Head
					{
						OFFSET	 0.000000	-0.001747	 0.077940
						CHANNELS 3 Zrotation Xrotation Yrotation
						End Site
						{
							OFFSET	 0.000000	-0.001747	 0.077940
						}
					}
				}
				JOINT RightShoulder
				{
					OFFSET	-0.080363	 0.000306	 0.159706
					CHANNELS 3 Zrotation Xrotation Yrotation
					JOINT RightArm
					{
						OFFSET	 0.000000	 0.000000	 0.164196
						CHANNELS 3 Zrotation Xrotation Yrotation
						JOINT RightForeArm
						{
							OFFSET	 0.000000	 0.000000	 0.365611
							CHANNELS 3 Zrotation Xrotation Yrotation
							JOINT RightHand
							{
								OFFSET	 0.000000	 0.000000	 0.360648
								CHANNELS 3 Zrotation Xrotation Yrotation
								JOINT RightHandIndex1
								{
									OFFSET	 0.000000	 0.000000	 0.069977
									CHANNELS 3 Zrotation Xrotation Yrotation
									JOINT RightHandIndex2
									{
										OFFSET	 0.000000	 0.000000	 0.052305
										CHANNELS 3 Zrotation Xrotation Yrotation
										JOINT RightHandIndex3
										{
											OFFSET	 0.009002	-0.000782	 0.042196
											CHANNELS 3 Zrotation Xrotation Yrotation
											End Site
											{
												OFFSET	 0.009002	-0.000782	 0.042196
											}
										}
									}
								}
							}
						}
					}
				}
			}
		}
	}
}
MOTION
Frames:    9
Frame Time: 0.03333334
-0.032180	 0.259658	 1.031618	 3.405274	 31.925390	-8.285373	 56.426130	-73.971570	-132.997200	 5.544406	-69.177730	 5.574162	 69.737310	 73.745190	-80.359250	-2.385832	 28.452790	-0.000001	 29.437340	-83.184220	-145.297600	-17.158700	-73.849300	-11.551320	-31.536590	 77.581730	 56.878630	 2.384659	 28.388700	-0.000001	 19.518490	 14.661620	 0.229138	-1.281222	 20.159620	 0.049487	-6.680312	-0.332381	 4.504963	-98.908410	 68.340380	 157.364200	 0.017126	-10.407620	-48.094090	 3.353957	-1.344467	-7.239818	-39.460790	-15.315690	-23.149070	-2.027600	 6.559038	 9.033609	-5.188889	 0.308190	 3.541030	-5.234859	 0.342567	 0.430617	-0.087324	 14.757090	-4.960890	-5.942546	-23.799670	-3.731663	 97.297340	 64.461460	-159.836400	-12.781200	 6.264338	 68.273550	-17.200230	-3.776947	 20.405670	 23.521880	-15.058600	 19.175890	 1.803333	 3.979147	-15.098590	 4.898592	 3.004813	-9.310344	 5.224449	 0.395017	 2.014677
-0.028397	 0.256276	 1.055398	 3.090858	 30.109240	-7.428405	 47.233410	-70.920040	-142.683400	 4.564810	-65.691210	 4.541645	 65.550220	 73.711370	-75.553710	-2.385832	 28.452790	-0.000001	 7.846487	-79.572930	-165.697900	-15.521720	-70.293220	-9.779846	-29.632740	 77.172360	 54.325880	 2.384659	 28.388700	-0.000001	 12.976280	 14.114210	 0.066681	-0.869523	 20.453240	-0.394077	-6.784385	-1.859441	 3.897574	-98.033790	 69.390850	 158.523400	 1.085615	-6.314516	-49.398270	 7.916972	-2.523571	-9.481554	-39.189950	-16.165330	-24.237940	-2.027600	 6.559038	 9.033609	-5.188889	 0.308190	 3.541030	-5.234859	 0.342567	 0.430617	-0.746657	 8.004601	-3.410064	-6.140183	-17.133760	-3.822014	 96.892370	 64.154820	-161.166000	-14.483690	 6.572926	 64.692440	-19.605630	-7.274051	 29.610680	 21.826060	-14.925270	 20.286290	 1.803333	 3.979147	-15.098590	 4.898592	 3.004813	-9.310344	 5.224449	 0.395017	 2.014677
-0.024120	 0.251841	 1.079396	 2.758848	 28.170180	-6.380901	 40.422260	-67.392320	-150.189900	 4.018960	-62.088520	 3.921244	 61.522860	 73.664290	-70.868890	-2.385833	 28.452760	 0.000004	-2.875882	-74.996620	-175.254000	-14.570300	-66.424350	-8.649851	-27.388850	 76.830960	 51.512950	 2.384659	 28.388700	-0.000001	 5.861494	 13.530670	-0.160108	-0.503563	 20.804580	-0.830590	-6.887540	-3.656408	 3.279084	-96.431780	 71.882050	 159.691400	 2.379184	-1.024928	-51.148750	 12.205340	-3.885616	-11.418190	-39.180850	-17.479870	-25.903350	-2.027600	 6.559038	 9.033609	-5.188889	 0.308190	 3.541030	-5.234859	 0.342567	 0.430617	-1.155119	 0.057451	-2.306785	-6.234185	-9.423668	-3.599216	 96.145480	 65.243970	-162.211400	-16.438680	 8.945760	 62.544900	-21.873540	-11.392210	 36.970770	 20.301940	-15.643390	 21.089760	 1.803333	 3.979147	-15.098590	 4.898592	 3.004813	-9.310344	 5.224449	 0.395017	 2.014677
-0.020050	 0.246087	 1.103533	 2.482038	 26.017860	-5.218295	 34.937950	-63.438110	-156.481700	 3.954816	-58.330880	 3.722428	 56.829340	 73.606840	-65.662700	-2.385833	 28.452750	 0.000004	-9.179957	-69.746760	 179.635400	-13.144670	-62.312170	-7.092428	-25.891100	 76.543340	 49.079880	 2.384659	 28.388700	-0.000001	-1.595475	 13.019670	-0.391217	-0.082818	 21.172320	-1.371964	-6.977970	-5.612661	 2.763531	-94.027000	 75.559320	 160.695800	 4.056477	 5.017277	-53.769790	 16.276630	-5.365462	-13.077850	-39.099220	-19.353400	-27.634350	-2.027600	 6.559038	 9.033609	-5.188889	 0.308190	 3.541030	-5.234859	 0.342567	 0.430617	-1.493844	-8.804873	-2.372323	-6.190222	-0.984551	-2.506404	 94.932610	 67.612820	-163.441000	-18.683410	 12.506290	 61.966210	-23.449910	-15.838340	 43.414780	 19.127670	-17.584710	 21.800030	 1.803333	 3.979147	-15.098590	 4.898592	 3.004813	-9.310344	 5.224449	 0.395017	 2.014677
-0.015998	 0.235967	 1.132139	 2.702792	 23.792760	-4.202047	 30.390840	-58.484640	-161.664200	 4.000918	-53.375250	 3.508935	 50.216010	 73.230730	-58.422860	-2.385833	 28.452750	 0.000004	-13.523110	-63.533190	 176.911400	-10.598300	-57.162400	-4.584910	-23.186560	 75.949340	 44.597640	 2.384659	 28.388700	-0.000001	-9.735833	 11.816120	-0.727189	 0.333929	 21.158150	-1.895780	-7.051068	-7.905181	 1.914453	-93.698520	 75.695370	 162.776900	 6.321332	 8.563407	-55.448680	 20.499040	-7.034586	-14.596970	-37.412910	-21.422010	-29.539460	-2.027600	 6.559038	 9.033609	-5.188889	 0.308190	 3.541030	-5.234859	 0.342567	 0.430617	-1.668635	-14.237920	-1.381422	-6.252376	 4.288799	-2.454605	 93.921650	 69.380070	-164.793400	-21.220420	 16.217190	 59.852110	-23.898720	-21.012360	 50.768230	 17.446250	-19.945020	 22.039020	 1.803333	 3.979147	-15.098590	 4.898592	 3.004813	-9.310344	 5.224449	 0.395017	 2.014677
-0.013849	 0.224262	 1.157017	 3.000342	 22.077290	-3.455734	 27.160920	-53.957430	-165.350000	 3.855482	-48.694500	 3.211740	 43.338670	 72.711230	-50.990130	-2.385833	 28.452750	 0.000004	-16.338100	-57.982350	 175.626400	-8.609094	-52.296230	-2.740969	-20.592550	 75.082950	 40.170270	 2.384659	 28.388700	-0.000001	-16.330220	 10.244090	-0.739564	 0.861828	 20.745630	-2.193604	-7.190588	-9.880639	 1.112330	-94.363930	 73.930240	 164.729700	 8.576718	 9.700392	-55.783330	 23.801200	-8.371794	-15.612740	-34.813510	-23.327820	-29.869010	-2.027600	 6.559038	 9.033609	-5.188889	 0.308190	 3.541030	-5.234859	 0.342567	 0.430617	-1.789407	-15.208040	-0.981129	-6.174641	 5.491511	-2.316693	 93.992910	 67.585750	-166.486800	-23.030110	 17.175650	 56.126080	-22.987960	-25.298590	 57.474290	 15.214220	-21.475220	 21.877840	 1.803333	 3.979147	-15.098590	 4.898592	 3.004813	-9.310344	 5.224449	 0.395017	 2.014677
-0.012973	 0.211688	 1.178498	 3.285736	 20.312760	-2.455401	 24.525400	-49.613830	-168.735400	 3.709615	-44.633230	 2.901435	 37.285720	 72.214010	-44.251690	-2.385833	 28.452750	 0.000004	-18.638850	-52.258660	 174.687000	-6.924218	-47.628150	-1.313707	-18.822250	 74.552550	 36.513590	 2.384659	 28.388700	-0.000001	-22.087860	 8.674374	-0.782087	 1.425031	 20.020610	-2.457246	-7.388859	-11.553710	 0.267388	-94.805760	 71.947000	 166.607000	 10.695310	 10.273600	-55.970600	 26.662680	-9.489626	-16.353550	-31.704530	-25.388830	-28.513900	-2.027600	 6.559038	 9.033609	-5.188889	 0.308190	 3.541030	-5.234859	 0.342567	 0.430617	-1.852521	-15.119940	-0.693907	-6.112715	 5.919328	-2.192614	 93.959250	 65.024890	-168.437800	-24.867670	 17.500380	 54.134830	-22.290840	-28.531300	 61.798310	 12.742120	-22.987800	 21.193600	 1.803333	 3.979147	-15.098590	 4.898592	 3.004813	-9.310344	 5.224449	 0.395017	 2.014677
-0.012440	 0.197314	 1.196024	 3.534088	 17.976090	-1.380750	 22.593140	-44.979060	-171.888700	 3.479750	-41.379270	 2.577849	 33.193840	 72.285320	-39.190540	-2.385833	 28.452750	 0.000004	-20.206660	-46.108940	 174.432400	-5.270239	-43.415220	-0.085193	-17.412200	 74.637890	 33.051090	 2.384659	 28.388700	-0.000001	-26.694170	 7.325777	-0.881330	 1.685029	 18.871610	-2.663562	-7.496087	-12.381030	-0.328996	-94.771540	 70.739300	 168.349400	 12.322130	 11.112470	-56.443100	 29.005800	-10.306690	-16.842210	-28.598200	-27.446110	-26.663290	-2.027600	 6.559038	 9.033609	-5.188889	 0.308190	 3.541030	-5.234859	 0.342567	 0.430617	-1.871938	-14.223080	-0.638362	-6.097378	 5.823052	-2.119232	 93.584820	 64.167890	-169.984600	-26.786620	 19.228470	 53.821730	-22.025830	-31.055200	 64.516040	 10.454990	-25.057110	 20.470110	 1.803333	 3.979147	-15.098590	 4.898592	 3.004813	-9.310344	 5.224449	 0.395017	 2.014677
-0.010981	 0.177779	 1.212396	 3.488856	 14.136790	-0.921854	 21.963200	-38.139130	-174.431400	 2.892029	-37.942770	 2.035764	 27.634160	 72.576270	-32.068710	-2.385833	 28.452760	 0.000004	-20.390760	-38.687100	 176.089700	-3.704719	-39.418130	 0.915476	-12.998590	 74.566280	 26.254500	 2.384659	 28.388700	-0.000001	-29.883110	 6.454806	-0.719040	 1.724749	 17.649890	-2.352278	-7.499821	-12.089740	-0.415393	-94.455550	 70.186750	 170.088200	 13.266920	 11.677610	-57.443760	 30.872120	-10.768870	-17.094830	-25.716200	-30.055980	-26.056790	-2.027600	 6.559038	 9.033609	-5.188889	 0.308190	 3.541030	-5.234859	 0.342567	 0.430617	-1.972195	-12.231850	-1.114877	-6.072000	 4.840509	-1.889022	 93.172780	 63.151210	-171.448000	-28.126800	 20.572320	 52.901060	-20.973600	-33.078990	 67.900460	 8.136580	-27.333120	 20.082440	 1.803333	 3.979147	-15.098590	 4.898592	 3.004813	-9.310344	 5.224449	 0.395017	 2.014677
